<?xml version="1.0" encoding="UTF-8" standalone="no"?>
<!-- Generator: Adobe Illustrator 23.0.4, SVG Export Plug-In . SVG Version: 6.00 Build 0)  -->

<svg
   version="1.1"
   id="Layer_2"
   x="0px"
   y="0px"
   viewBox="0 0 600.00001 400.00002"
   xml:space="preserve"
   sodipodi:docname="amazon_pay.svg"
   width="600"
   height="400"
   inkscape:version="1.1.2 (0a00cf5339, 2022-02-04)"
   xmlns:inkscape="http://www.inkscape.org/namespaces/inkscape"
   xmlns:sodipodi="http://sodipodi.sourceforge.net/DTD/sodipodi-0.dtd"
   xmlns="http://www.w3.org/2000/svg"
   xmlns:svg="http://www.w3.org/2000/svg"><defs
   id="defs17" /><sodipodi:namedview
   id="namedview15"
   pagecolor="#ffffff"
   bordercolor="#666666"
   borderopacity="1.0"
   inkscape:pageshadow="2"
   inkscape:pageopacity="0.0"
   inkscape:pagecheckerboard="0"
   showgrid="false"
   inkscape:zoom="0.90509668"
   inkscape:cx="232.57184"
   inkscape:cy="478.95436"
   inkscape:window-width="3840"
   inkscape:window-height="2100"
   inkscape:window-x="1080"
   inkscape:window-y="0"
   inkscape:window-maximized="1"
   inkscape:current-layer="Layer_2" />
<style
   type="text/css"
   id="style2">
	.st0{fill-rule:evenodd;clip-rule:evenodd;fill:#FF9900;}
	.st1{fill-rule:evenodd;clip-rule:evenodd;fill:#232F3E;}
</style>

<g
   id="g839"
   transform="translate(99.151908,63.37)"><path
     class="st0"
     d="m 356.16,209.1 c -42.1,31.07 -103.13,47.59 -155.69,47.59 -73.66,0 -139.99,-27.23 -190.18,-72.55 -3.94,-3.56 -0.43,-8.42 4.31,-5.66 54.15,31.51 121.12,50.49 190.29,50.49 46.66,0 97.95,-9.68 145.15,-29.7 7.11,-3.03 13.08,4.68 6.12,9.83 m 17.51,-20 c 5.39,6.9 -5.99,35.31 -11.07,48 -1.54,3.84 1.76,5.39 5.24,2.48 22.58,-18.89 28.42,-58.48 23.8,-64.2 -4.59,-5.67 -44.07,-10.55 -68.17,6.37 -3.71,2.6 -3.07,6.2 1.04,5.7 13.57,-1.62 43.78,-5.25 49.16,1.65"
     id="path4" /><g
     id="g12">
	<path
   class="st1"
   d="M 312.72,138.23 356.54,26.7 c 0.92,-2.26 1.39,-3.85 1.39,-4.78 0,-1.59 -0.93,-2.39 -2.79,-2.39 h -11.15 c -2.13,0 -3.58,0.34 -4.39,1 -0.8,0.67 -1.59,2.13 -2.39,4.39 l -26.89,77.27 -27.88,-77.27 c -0.8,-2.26 -1.59,-3.72 -2.39,-4.39 -0.8,-0.66 -2.26,-1 -4.39,-1 h -11.95 c -1.86,0 -2.79,0.8 -2.79,2.39 0,0.93 0.46,2.52 1.39,4.78 l 38.44,94.8 -3.78,10.16 c -2.26,6.38 -4.78,10.76 -7.57,13.15 -2.79,2.39 -6.71,3.58 -11.75,3.58 -2.26,0 -4.05,-0.14 -5.37,-0.4 -1.33,-0.26 -2.33,-0.4 -2.99,-0.4 -1.99,0 -2.99,1.26 -2.99,3.78 v 5.18 c 0,1.86 0.33,3.22 1,4.08 0.66,0.86 1.72,1.5 3.19,1.89 3.31,0.92 7.1,1.4 11.35,1.4 7.57,0 13.71,-1.99 18.42,-5.98 4.73,-3.97 8.88,-10.55 12.46,-19.71"
   id="path6" />
	<path
   class="st1"
   d="m 149.14,46.94 c -1.93,-6.44 -4.68,-11.92 -8.27,-16.43 -3.58,-4.51 -7.96,-7.97 -13.14,-10.36 -5.17,-2.39 -10.95,-3.58 -17.33,-3.58 -5.97,0 -11.82,1.12 -17.52,3.38 -5.71,2.26 -11.09,5.58 -16.14,9.96 l -0.99,-6.38 c -0.4,-2.65 -1.93,-3.98 -4.59,-3.98 H 62.4 c -2.65,0 -3.98,1.33 -3.98,3.98 v 134.04 c 0,2.66 1.33,3.98 3.98,3.98 h 11.75 c 2.66,0 3.98,-1.33 3.98,-3.98 v -46.6 c 8.63,7.83 18.92,11.75 30.87,11.75 6.5,0 12.41,-1.3 17.72,-3.88 5.31,-2.59 9.82,-6.21 13.54,-10.86 3.72,-4.64 6.61,-10.28 8.66,-16.93 2.06,-6.64 3.09,-14.08 3.09,-22.31 0.02,-8.09 -0.95,-15.36 -2.87,-21.8 z m -44.71,59.84 c -9.04,0 -17.8,-3.18 -26.29,-9.56 V 41.66 c 8.36,-6.11 17.26,-9.16 26.69,-9.16 18.06,0 27.09,12.42 27.09,37.24 -0.01,24.7 -9.17,37.04 -27.49,37.04 z"
   id="path8" />
	<path
   class="st1"
   d="m 238.95,24.39 c -5.98,-5.17 -15.27,-7.76 -27.88,-7.76 -6.24,0 -12.48,0.57 -18.72,1.69 -6.25,1.13 -11.49,2.62 -15.74,4.48 -1.59,0.67 -2.66,1.36 -3.19,2.09 -0.53,0.73 -0.8,2.03 -0.8,3.88 v 5.37 c 0,2.39 0.86,3.59 2.59,3.59 0.53,0 1.1,-0.1 1.7,-0.3 0.6,-0.2 1.1,-0.36 1.49,-0.5 10.23,-3.05 19.98,-4.58 29.28,-4.58 7.96,0 13.54,1.46 16.73,4.39 3.19,2.92 4.78,7.96 4.78,15.13 v 13.14 c -9.29,-2.26 -17.66,-3.38 -25.1,-3.38 -11.68,0 -20.97,2.89 -27.88,8.66 -6.9,5.77 -10.36,13.51 -10.36,23.2 0,9.04 2.79,16.23 8.37,21.61 5.57,5.38 13.14,8.06 22.7,8.06 5.71,0 11.45,-1.13 17.23,-3.38 5.78,-2.25 11.05,-5.45 15.83,-9.56 l 1,6.57 c 0.4,2.52 1.86,3.78 4.39,3.78 h 8.56 c 2.65,0 3.99,-1.33 3.99,-3.98 v -68.1 c -0.01,-10.89 -3,-18.92 -8.97,-24.1 z m -9.76,73.7 c -4.38,3.32 -8.96,5.84 -13.74,7.57 -4.78,1.73 -9.36,2.59 -13.74,2.59 -5.18,0 -9.16,-1.36 -11.95,-4.08 -2.79,-2.72 -4.18,-6.6 -4.18,-11.65 0,-11.55 7.5,-17.33 22.5,-17.33 3.45,0 7,0.24 10.65,0.7 3.65,0.47 7.14,1.1 10.46,1.89 z"
   id="path10" />
</g></g>
</svg>
